<svg xmlns="http://www.w3.org/2000/svg" width="255" height="64" viewBox="0 0 255 64"><defs><style>.a{fill:#7badbc;}.b,.c,.d{fill:#fff;}.b,.c{font-size:19px;}.b{font-family:Roboto-Bold, Roboto;font-weight:700;}.c{font-family:Roboto-Regular, Roboto;}</style></defs><rect class="a" width="255" height="64" rx="32"/><text class="b" transform="translate(89 52)"><tspan x="0" y="0">Google Store</tspan></text><text class="c" transform="translate(89 26)"><tspan x="0" y="0">Disponible ya</tspan></text><path class="d" d="M9.16,27.72a1.545,1.545,0,0,0,1.54,1.54h1.54v5.39a2.31,2.31,0,1,0,4.62,0V29.26h3.08v5.39a2.31,2.31,0,0,0,4.62,0V29.26H26.1a1.545,1.545,0,0,0,1.54-1.54V12.32H9.16ZM5.31,12.32A2.307,2.307,0,0,0,3,14.63V25.41a2.31,2.31,0,0,0,4.62,0V14.63A2.307,2.307,0,0,0,5.31,12.32Zm26.18,0a2.307,2.307,0,0,0-2.31,2.31V25.41a2.31,2.31,0,0,0,4.62,0V14.63A2.307,2.307,0,0,0,31.49,12.32ZM23.836,3.326l2-2a.762.762,0,0,0,0-1.093.762.762,0,0,0-1.093,0L22.465,2.51A8.993,8.993,0,0,0,18.4,1.54a9.122,9.122,0,0,0-4.1.97L12.009.231a.762.762,0,0,0-1.093,0,.762.762,0,0,0,0,1.093l2.017,2.017A9.214,9.214,0,0,0,9.16,10.78H27.64A9.187,9.187,0,0,0,23.836,3.326ZM15.32,7.7H13.78V6.16h1.54Zm7.7,0H21.48V6.16h1.54Z" transform="translate(29.421 13.617)"/></svg>