<svg xmlns="http://www.w3.org/2000/svg" width="26.955" height="32.077" viewBox="0 0 26.955 32.077"><defs><style>.a{fill:#fff;}</style></defs><path class="a" d="M22.818,19.2A6.685,6.685,0,0,1,26.4,13.128a7.694,7.694,0,0,0-6.066-3.194c-2.542-.2-5.321,1.482-6.338,1.482-1.074,0-3.538-1.411-5.471-1.411-4,.064-8.243,3.187-8.243,9.539a17.849,17.849,0,0,0,1.031,5.815c.917,2.628,4.225,9.073,7.677,8.966,1.8-.043,3.079-1.282,5.428-1.282,2.277,0,3.459,1.282,5.471,1.282,3.48-.05,6.474-5.908,7.347-8.543A7.1,7.1,0,0,1,22.818,19.2ZM18.765,7.442A6.745,6.745,0,0,0,20.483,2.25a7.594,7.594,0,0,0-4.863,2.5A6.851,6.851,0,0,0,13.787,9.9a6.014,6.014,0,0,0,4.977-2.456Z" transform="translate(-0.281 -2.25)"/></svg>