<svg xmlns="http://www.w3.org/2000/svg" width="29.025" height="34.83" viewBox="0 0 29.025 34.83"><defs><style>.a{fill:#fff;}</style></defs><path class="a" d="M8.8,26.122a1.456,1.456,0,0,0,1.451,1.451h1.451v5.079a2.177,2.177,0,1,0,4.354,0V27.574h2.9v5.079a2.177,2.177,0,0,0,4.354,0V27.574h1.451a1.456,1.456,0,0,0,1.451-1.451V11.61H8.8ZM5.177,11.61A2.174,2.174,0,0,0,3,13.787V23.946a2.177,2.177,0,1,0,4.354,0V13.787A2.174,2.174,0,0,0,5.177,11.61Zm24.671,0a2.174,2.174,0,0,0-2.177,2.177V23.946a2.177,2.177,0,1,0,4.354,0V13.787A2.174,2.174,0,0,0,29.848,11.61ZM22.635,3.135l1.887-1.887a.718.718,0,0,0,0-1.03.718.718,0,0,0-1.03,0L21.344,2.366a8.474,8.474,0,0,0-3.831-.914,8.6,8.6,0,0,0-3.86.914L11.49.218a.718.718,0,0,0-1.03,0,.718.718,0,0,0,0,1.03l1.9,1.9A8.683,8.683,0,0,0,8.8,10.159H26.22A8.657,8.657,0,0,0,22.635,3.135ZM14.61,7.256H13.159V5.8H14.61Zm7.256,0H20.415V5.8h1.451Z" transform="translate(-3)"/></svg>