<svg xmlns="http://www.w3.org/2000/svg" width="62" height="62" viewBox="0 0 62 62"><defs><style>.a{fill:#fff;}.b{fill:#b9dde8;}</style></defs><ellipse class="a" cx="31" cy="31" rx="31" ry="31"/><g transform="translate(12.826 12.782)"><path class="b" d="M834.132,161.753a2.131,2.131,0,1,0,2.131,2.131A2.13,2.13,0,0,0,834.132,161.753Z" transform="translate(-806.334 -155.262)"/><path class="b" d="M831.653,163.312a8.952,8.952,0,1,0,8.953,8.953A8.963,8.963,0,0,0,831.653,163.312Zm0,14.686a5.734,5.734,0,1,1,5.734-5.734A5.74,5.74,0,0,1,831.653,178Z" transform="translate(-813.331 -154.089)"/><path class="b" d="M842.784,194.4H828.271a10.93,10.93,0,0,1-10.917-10.919V168.968a10.93,10.93,0,0,1,10.917-10.919h14.513A10.93,10.93,0,0,1,853.7,168.968v14.511A10.93,10.93,0,0,1,842.784,194.4ZM828.271,161.47a7.507,7.507,0,0,0-7.5,7.5v14.511a7.508,7.508,0,0,0,7.5,7.5h14.513a7.508,7.508,0,0,0,7.5-7.5V168.968a7.507,7.507,0,0,0-7.5-7.5Z" transform="translate(-817.354 -158.049)"/></g></svg>