<svg xmlns="http://www.w3.org/2000/svg" width="82.456" height="87.161" viewBox="0 0 82.456 87.161"><defs><style>.a{fill:#ffc500;}.b{fill:#fff;}</style></defs><g transform="translate(-182.444 -526.75)"><path class="a" d="M340.652,526.75c.708.166,1.419.322,2.125.5a15.858,15.858,0,1,1-6.081-.33,3.731,3.731,0,0,0,.552-.168Zm-1.769,1.932a13.955,13.955,0,1,0,14.007,13.927A13.968,13.968,0,0,0,338.883,528.682Z" transform="translate(-123.796)"/><path class="a" d="M238.026,813.668c5.621-5.257,9.233-5.319,14.254-4.681a16.38,16.38,0,0,1-1.48,1.218c-1.938,1.244-2.537,3.172-2.789,5.291a2.67,2.67,0,0,0-.062.843c.067.306.189.725.42.851a24.417,24.417,0,0,1,9.734,9.844,1.024,1.024,0,0,0,1.081.573c1.808-.035,3.618-.014,5.542-.014.111,3.229.545,6.394-.6,9.469a10.069,10.069,0,0,1-3.172,3.823c-5.979,5.3-13.016,8.581-20.636,10.715-.8.225-1.25.491-1.183,1.386.163,2.172.287,4.347.43,6.52.016.247.056.493.1.836-.639.049-1.223.129-1.808.131-3.291.012-6.581-.009-9.872.021a1.256,1.256,0,0,1-1.191-.613c-.968-1.465-1.934-2.933-2.951-4.364a1.28,1.28,0,0,0-.923-.5,88.348,88.348,0,0,1-13.68-.33c-1.407-.156-2.806-.388-4.208-.584-.243-.034-.487-.063-.911-.118l.56,6.491h-1.416c-3.432,0-6.865-.015-10.3.014a1.359,1.359,0,0,1-1.252-.647,26.765,26.765,0,0,1-4.29-10.99c-.334-1.752-.553-3.527-.845-5.288a1.49,1.49,0,0,0-.326-.747c-2.86-3.038-3.784-6.758-3.807-10.788a19.42,19.42,0,0,1,1.874-8.563.95.95,0,0,0,.024-.811c-1.857-2.062-1.75-4.418-.913-6.785a7.254,7.254,0,0,1,1.739-2.664,3.759,3.759,0,0,1,5.195-.247,1.9,1.9,0,0,0,2.571-.011,36.252,36.252,0,0,1,15.014-5.565,45.1,45.1,0,0,1,22.779,2.07A23.9,23.9,0,0,1,238.026,813.668Zm24.354,16.519c-1.822,0-3.323-.006-4.823,0a1.191,1.191,0,0,1-1.182-.765,21.956,21.956,0,0,0-10.79-10.654.969.969,0,0,1-.437-.751,21.37,21.37,0,0,1,.238-2.794c.186-1.182.463-2.351.71-3.573-3.4.969-5.683,3.361-7.908,5.849-.177-.16-.289-.245-.382-.348a21.811,21.811,0,0,0-10.382-6.014,42.963,42.963,0,0,0-18.182-1.233c-7.487,1.035-14.247,3.631-19.659,9.14a1.265,1.265,0,0,1-.878.312A2.741,2.741,0,0,1,185.824,817a4.486,4.486,0,0,0,0,3.192c.53,1.205,1.854.9,2.794,1.418-.142.224-.26.448-.412.645a15.115,15.115,0,0,0-3.058,9.024c-.11,3.886.56,7.522,3.637,10.3a1.307,1.307,0,0,1,.315.738c.247,1.625.425,3.26.7,4.879a28.345,28.345,0,0,0,3.233,9.873,1.328,1.328,0,0,0,1.335.773c2.155-.047,4.311-.016,6.467-.02.272,0,.545-.031.845-.049v-7a3.654,3.654,0,0,1,.494.027,72.05,72.05,0,0,0,22.232,1.442,1.141,1.141,0,0,1,.836.475c.975,1.46,1.912,2.947,2.832,4.443a1.256,1.256,0,0,0,1.235.669c2.155-.036,4.311-.013,6.467-.016.271,0,.543-.024.853-.039-.025-.41-.069-.72-.059-1.028.063-1.973.128-3.947.214-5.919.036-.819.42-1.214,1.3-1.426a48.325,48.325,0,0,0,20.829-10.268c1.183-1.026,2.622-1.952,2.905-3.65C262.114,833.768,262.2,832.019,262.38,830.187Z" transform="translate(0 -246.585)"/><path class="b" d="M387.169,846.51a34.686,34.686,0,0,0-22.746.081l.9,2.486A32.272,32.272,0,0,1,386.293,849Zm18.595,13.7a2.325,2.325,0,0,0,2.259,2.2,2.244,2.244,0,1,0-.084-4.488A2.33,2.33,0,0,0,405.763,860.215Z" transform="translate(-160.234 -279.899)"/><path class="a" d="M404.7,574.964v-7.422c-1.931-.528-3.928-.973-5.106-2.848a5.338,5.338,0,0,1-.633-3.53c.279-2.6,2.231-4.227,5.752-4.771v-1.737h1.351v1.74c1.938.226,3.691.727,4.833,2.383a4.921,4.921,0,0,1,.869,3.038c-.584,0-1.117-.022-1.648.007-.5.027-.728-.1-.846-.66a2.962,2.962,0,0,0-3.148-2.543c-.015.162-.043.327-.043.491q0,3.06,0,6.128c1.04.361,2.045.662,3.012,1.055a4.432,4.432,0,0,1,3.164,4.616c-.048,2.937-1.151,4.789-3.423,5.605-.87.313-1.792.484-2.742.734v2.521h-1.331v-2.605c-2.088-.247-4.05-.673-5.273-2.552a7,7,0,0,1-.959-4.022h2.365C401.588,573.975,402.415,574.927,404.7,574.964Zm1.428.107c2.363-.184,3.611-1.411,3.668-3.562.049-1.869-1.28-3.166-3.668-3.547ZM404.71,558.54c-2.094.157-3.311,1.342-3.347,3.19-.034,1.713,1.257,2.938,3.347,3.151Z" transform="translate(-190.261 -24.572)"/><path class="a" d="M387.169,846.51,386.293,849a32.272,32.272,0,0,0-20.965.078l-.9-2.486A34.686,34.686,0,0,1,387.169,846.51Z" transform="translate(-160.234 -279.899)"/><path class="a" d="M710.4,958.183a2.329,2.329,0,0,1,2.174-2.286,2.244,2.244,0,1,1,.085,4.488A2.325,2.325,0,0,1,710.4,958.183Z" transform="translate(-464.868 -377.867)"/></g></svg>