<svg xmlns="http://www.w3.org/2000/svg" width="83.75" height="83.75" viewBox="0 0 83.75 83.75"><defs><style>.a{fill:#ffc500;}</style></defs><g transform="translate(-1084.625 -1726)"><g transform="translate(924.375 550)"><path class="a" d="M160.25,1248.5c1.715-4.115,3.332-5.167,7.948-5.168q18.977,0,37.953,0c.618,0,1.372-.165,1.821.123.589.378,1.3,1.144,1.282,1.718-.02.533-.858,1.185-1.48,1.5a4.415,4.415,0,0,1-1.835.088q-18.977,0-37.953,0c-3.449,0-4.31.856-4.31,4.273q0,28.93,0,57.859c0,3.421.872,4.293,4.289,4.293q28.93,0,57.86,0c3.422,0,4.275-.86,4.276-4.308q0-18.7,0-37.395c0-.434.006-.868,0-1.3-.02-1.3.008-2.711,1.767-2.641,1.544.061,1.676,1.347,1.674,2.614q-.022,12.093-.007,24.186,0,7.163,0,14.325c0,4.614-1.055,6.235-5.168,7.947H165.461a7.327,7.327,0,0,1-5.211-5.211Z" transform="translate(0 -56.867)"/><path class="a" d="M378.6,1185.678a13.42,13.42,0,0,1-3.969,6.131c-12.836,12.767-25.609,25.6-38.45,38.36a7.827,7.827,0,0,1-3.106,1.822c-3.543,1.1-7.128,2.062-10.73,2.948a3.181,3.181,0,0,1-2.494-.337c-.433-.378-.383-1.6-.191-2.353.927-3.656,1.917-7.3,3.016-10.906a6.976,6.976,0,0,1,1.632-2.8q19.149-19.256,38.36-38.45c1.821-1.831,3.7-3.447,6.255-4.1h2.606a9.171,9.171,0,0,1,7.072,7.072Zm-55.1,45.439c2.784-.777,5.292-1.383,7.731-2.2a8.379,8.379,0,0,0,3.112-1.788c4.143-4.009,8.185-8.121,12.262-12.2q13.282-13.284,26.568-26.563c1.34-1.337,2.256-2.821,1.881-4.788a4.756,4.756,0,0,0-3.356-3.86,4.819,4.819,0,0,0-5.224,1.482q-19.792,19.792-39.572,39.6a4.207,4.207,0,0,0-1.042,1.7C325.065,1225.225,324.355,1227.977,323.5,1231.117Z" transform="translate(-134.605)"/></g></g></svg>