<svg xmlns="http://www.w3.org/2000/svg" width="88.793" height="86.226" viewBox="0 0 88.793 86.226"><defs><style>.a{fill:#ffc500;}</style></defs><g transform="translate(-104.392 -680.697)"><g transform="translate(104.392 680.697)"><path class="a" d="M565.735,693.09c-.428.937-.756,1.159-1.8,1.006a23.751,23.751,0,0,1-7-2.075c-3.454-1.684-6.837-3.513-10.256-5.267-1.327-.681-2.644-1.394-4.016-1.974a15.129,15.129,0,0,0-7.872-.886,135.627,135.627,0,0,0-14.731,2.863,10.217,10.217,0,0,0-1.627.542,2.038,2.038,0,0,0-1.287,2.126,1.976,1.976,0,0,0,1.65,1.75,13.051,13.051,0,0,0,2.207.17q5.774.056,11.549.064a.848.848,0,0,0,.522-.258c.32-.318.582-.694.9-1.01a4.824,4.824,0,0,1,5.573-.994,65.944,65.944,0,0,1,9.1,4.73,1.483,1.483,0,0,1,.136,2.5,1.061,1.061,0,0,1-1.132.231,11.077,11.077,0,0,1-1.022-.479c-2.365-1.234-4.721-2.488-7.1-3.7a8.825,8.825,0,0,0-1.78-.643,2.03,2.03,0,0,0-1.933,3.2c1.2,1.166,2.408,2.334,3.714,3.376,1.779,1.42,3.654,2.719,5.483,4.076a7.618,7.618,0,0,0,4.173,1.433c2.756.177,5.513.338,8.267.552,1.049.082,2.091.274,3.13.452a2.873,2.873,0,0,1,.92.359,1.357,1.357,0,0,1,.622,1.559,1.207,1.207,0,0,1-1.352,1.014c-.721-.04-1.437-.18-2.158-.236-2.422-.186-4.846-.354-7.269-.53-1.264-.092-2.532-.149-3.79-.3a8.509,8.509,0,0,1-3.147-1.208,54.415,54.415,0,0,1-7.175-5.125c-1-.8-1.961-1.654-2.923-2.5a5.467,5.467,0,0,1-1.877-3.122c-.061-.326-.212-.425-.549-.427q-6.771-.033-13.541-.1a1.921,1.921,0,0,1-.848-.223,9.722,9.722,0,0,1-1.536-.948,5,5,0,0,1,.273-8,8.363,8.363,0,0,1,3.635-1.4c4.5-.925,9-1.9,13.53-2.674a19.214,19.214,0,0,1,12.76,2.03c2.514,1.374,5.045,2.716,7.555,4.1a38.4,38.4,0,0,0,9.365,3.78c.554.136,1.085.366,1.635.523a1.363,1.363,0,0,1,1.009.926Z" transform="translate(-476.942 -680.697)"/><path class="a" d="M132.667,1359.579c-.854-.082-1.71-.147-2.562-.25a16.216,16.216,0,0,1-5.816-1.886c-2.638-1.429-5.285-2.844-7.915-4.288a37.571,37.571,0,0,0-9.286-3.735,17.776,17.776,0,0,1-1.93-.638,1.269,1.269,0,0,1-.732-1.566c.126-.711.5-1.1,1.2-1.025a22.427,22.427,0,0,1,2.8.489,40.492,40.492,0,0,1,9.828,4.079c2.472,1.325,4.952,2.635,7.409,3.988a15.171,15.171,0,0,0,7.577,1.771,36.905,36.905,0,0,0,7.487-.93q5.152-1.1,10.288-2.271a2.288,2.288,0,0,0,1.958-2.03,2.016,2.016,0,0,0-1.9-2.215q-3.008-.133-6.02-.166c-2.415-.028-4.832-.017-7.247,0a1.263,1.263,0,0,0-.7.3,7.79,7.79,0,0,0-.8.8,4.658,4.658,0,0,1-5.412,1.25,38.974,38.974,0,0,1-3.983-1.824c-1.806-.937-3.585-1.93-5.344-2.952a1.444,1.444,0,0,1-.179-2.562.978.978,0,0,1,1.05-.212c.376.152.745.325,1.106.511,2.5,1.294,5,2.6,7.512,3.883a4.234,4.234,0,0,0,1.291.391,2.017,2.017,0,0,0,2.264-2.614,2.875,2.875,0,0,0-1.012-1.467c-1.183-.984-2.357-1.983-3.579-2.917-1.547-1.181-3.166-2.267-4.7-3.461a8.412,8.412,0,0,0-4.843-1.641c-2.817-.175-5.634-.344-8.448-.562a25.879,25.879,0,0,1-2.674-.442,2.31,2.31,0,0,1-.63-.243,1.32,1.32,0,0,1-.708-1.59,1.385,1.385,0,0,1,1.554-1.071,69.278,69.278,0,0,0,10.147.808,13.617,13.617,0,0,1,7.661,2.484,82.085,82.085,0,0,1,8.5,6.683,5.485,5.485,0,0,1,1.813,3.059c.068.365.258.429.6.431,4.227.026,8.455.115,12.681.078a5.063,5.063,0,0,1,3.556,8.624,5.381,5.381,0,0,1-2.687,1.58c-4.686,1.157-9.4,2.17-14.166,2.951-1.055.173-2.131.216-3.2.319l-.806.081Z" transform="translate(-104.392 -1273.353)"/><path class="a" d="M257.311,916.607c.867-.676,1.676-1.382,2.559-1.979a14.905,14.905,0,0,1,23.689,10.419,19.534,19.534,0,0,1-3.472,13.285,33.175,33.175,0,0,1-7.942,8.115,54.183,54.183,0,0,1-13.612,7.232,3.079,3.079,0,0,1-2.247.022,51.119,51.119,0,0,1-17.172-10.166,26.4,26.4,0,0,1-6.949-10.078,19.181,19.181,0,0,1-.966-8.426,13.371,13.371,0,0,1,3.873-8.363,14.731,14.731,0,0,1,5.827-4.025,14.946,14.946,0,0,1,14.917,2.674C256.332,915.73,256.818,916.181,257.311,916.607Zm23.343,11.287c.03-4.038-.92-6.695-2.955-8.958a11.977,11.977,0,0,0-17.994-.165c-.441.476-.851.982-1.3,1.448a1.264,1.264,0,0,1-2.1-.038c-.3-.323-.588-.649-.887-.969a12.574,12.574,0,0,0-8.4-4.4,12.062,12.062,0,0,0-12.441,8.508,14.65,14.65,0,0,0,.693,9.7,23.564,23.564,0,0,0,6.705,8.985,51.405,51.405,0,0,0,14.118,8.432,3.153,3.153,0,0,0,2.609,0,61.942,61.942,0,0,0,9.357-4.922,32.788,32.788,0,0,0,8.8-7.864A17.432,17.432,0,0,0,280.654,927.894Z" transform="translate(-219.614 -890.773)"/></g></g></svg>