<svg xmlns="http://www.w3.org/2000/svg" width="51.292" height="102.629" viewBox="0 0 51.292 102.629"><defs><style>.a{fill:#ffc500;}</style></defs><path class="a" d="M54.04,2.25H17.708a7.538,7.538,0,0,0-7.583,7.537v87.28a7.761,7.761,0,0,0,7.583,7.812h36.31a7.608,7.608,0,0,0,7.4-7.812V9.787A7.351,7.351,0,0,0,54.04,2.25ZM32.346,7.519h6.872a.916.916,0,0,1,0,1.833H32.346a.916.916,0,0,1,0-1.833ZM35.9,101.443a3.986,3.986,0,1,1,3.986-3.986A3.989,3.989,0,0,1,35.9,101.443ZM57.316,90.218H14.248a.46.46,0,0,1-.458-.458V14.391a.46.46,0,0,1,.458-.458H57.316a.46.46,0,0,1,.458.458V89.759A.46.46,0,0,1,57.316,90.218Z" transform="translate(-10.125 -2.25)"/></svg>