<svg xmlns="http://www.w3.org/2000/svg" width="86.053" height="79.906" viewBox="0 0 86.053 79.906"><defs><style>.a{fill:#ffc500;}</style></defs><path class="a" d="M85.037,31.035H56.782L48.2,5.411a3.111,3.111,0,0,0-5.839,0L33.771,31.035H5.323A3.082,3.082,0,0,0,2.25,34.108a2.259,2.259,0,0,0,.058.519A2.953,2.953,0,0,0,3.595,36.8L26.817,53.163,17.9,79.075a3.082,3.082,0,0,0,1.056,3.457,2.972,2.972,0,0,0,1.729.749,3.765,3.765,0,0,0,1.921-.691L45.276,66.436,67.942,82.59a3.6,3.6,0,0,0,1.921.691,2.759,2.759,0,0,0,1.71-.749,3.044,3.044,0,0,0,1.056-3.457L63.716,53.163,86.747,36.644l.557-.48a3.222,3.222,0,0,0,1-2.055A3.253,3.253,0,0,0,85.037,31.035ZM60.6,48.8a5.4,5.4,0,0,0-1.959,6.108l5.782,16.846a.771.771,0,0,1-1.172.884l-14.867-10.6a5.367,5.367,0,0,0-3.131-1,5.267,5.267,0,0,0-3.112,1L27.278,72.621a.768.768,0,0,1-1.172-.884l5.782-16.846a5.413,5.413,0,0,0-1.978-6.147L14.351,37.777a.772.772,0,0,1,.442-1.4H33.751a5.371,5.371,0,0,0,5.09-3.669l5.686-16.942a.773.773,0,0,1,1.46,0l5.686,16.942a5.371,5.371,0,0,0,5.09,3.669h18.69a.76.76,0,0,1,.442,1.383Z" transform="translate(-2.25 -3.375)"/></svg>