<svg xmlns="http://www.w3.org/2000/svg" width="62" height="62" viewBox="0 0 62 62"><defs><style>.a{fill:#fff;}.b{fill:#b9dde8;}</style></defs><ellipse class="a" cx="31" cy="31" rx="31" ry="31"/><path class="b" d="M851.166,336.894q-.476.045-.955.047a10.359,10.359,0,0,1-8.667-4.684v15.951a11.79,11.79,0,1,1-11.79-11.79h0c.247,0,.487.023.729.037v5.811a5.9,5.9,0,0,0-.729-.074,6.017,6.017,0,1,0,0,12.033,6.164,6.164,0,0,0,6.259-5.942l.058-27.091h5.558a10.352,10.352,0,0,0,9.542,9.243v6.457" transform="translate(-804.068 -309.465)"/></svg>