<svg xmlns="http://www.w3.org/2000/svg" width="62" height="62" viewBox="0 0 62 62"><defs><style>.a{fill:#fff;}.b{fill:#b9dde8;}</style></defs><g transform="translate(0)"><ellipse class="a" cx="31" cy="31" rx="31" ry="31"/><path class="b" d="M851.956,218.4a13.98,13.98,0,0,1-3.421.974c.55-.093,1.358-1.088,1.682-1.491a6.259,6.259,0,0,0,1.135-2.069c.028-.058.051-.133-.009-.177a.191.191,0,0,0-.181.016,17.489,17.489,0,0,1-4.055,1.551.266.266,0,0,1-.278-.075,3.313,3.313,0,0,0-.356-.361,7.128,7.128,0,0,0-1.963-1.2,6.839,6.839,0,0,0-3.012-.485,7.2,7.2,0,0,0-2.858.808,7.367,7.367,0,0,0-2.3,1.882,7.07,7.07,0,0,0-1.377,2.758,7.464,7.464,0,0,0-.072,2.911c.021.163.007.184-.14.163-5.569-.829-10.185-2.821-13.931-7.09-.163-.186-.251-.186-.384.014-1.64,2.457-.845,6.4,1.2,8.346.273.258.554.517.857.752a7.066,7.066,0,0,1-2.688-.752c-.163-.1-.245-.046-.259.14a4.451,4.451,0,0,0,.044.8,7.144,7.144,0,0,0,4.4,5.7,4.27,4.27,0,0,0,.892.273,7.982,7.982,0,0,1-2.635.081c-.193-.037-.266.06-.193.244,1.16,3.163,3.664,4.1,5.539,4.638.251.044.5.044.755.1-.016.023-.031.023-.045.044-.622.95-2.779,1.654-3.783,2.006a13.539,13.539,0,0,1-5.744.734c-.31-.046-.375-.042-.457,0s-.012.126.088.207c.392.259.79.487,1.2.71a18.99,18.99,0,0,0,3.841,1.537c6.9,1.9,14.676.5,19.857-4.644,4.071-4.044,5.5-9.62,5.5-15.2,0-.219.258-.34.41-.454a13.443,13.443,0,0,0,2.7-2.811.861.861,0,0,0,.179-.54V218.4C852.095,218.309,852.093,218.335,851.956,218.4Z" transform="translate(-803.828 -198.02)"/></g></svg>