<svg id="Capa_1" data-name="Capa 1" xmlns="http://www.w3.org/2000/svg" viewBox="0 0 16 16"><defs><style>.cls-1{fill:#2f5ca8;}.cls-2,.cls-3{fill:#fff;}.cls-2{stroke:#305ca8;stroke-miterlimit:10;stroke-width:0.1px;}</style></defs><title>Mesa de trabajo 1 copia</title><polygon class="cls-1" points="4.14 2.46 5.89 3.23 4.07 5.98 2.22 4.59 2.63 2.88 4.14 2.46"/><path class="cls-2" d="M6.47,2.84A5.66,5.66,0,0,0,4.4,2.1C3.51,2,.19,2.32,1.17,4.78A24.8,24.8,0,0,0,2.48,7.31a.42.42,0,0,0,.3.18c.2,0,.44-.13.36-.89C3,5.35,3.05,2.25,5.76,3.22Z"/><polygon class="cls-1" points="12.03 2.46 10.28 3.23 12.1 5.98 13.95 4.59 13.54 2.88 12.03 2.46"/><path class="cls-2" d="M9.7,2.84a5.66,5.66,0,0,1,2.07-.74C12.66,2,16,2.32,15,4.78a24.8,24.8,0,0,1-1.31,2.53.42.42,0,0,1-.3.18c-.2,0-.44-.13-.36-.89.13-1.25.09-4.35-2.62-3.38Z"/><path class="cls-2" d="M8.08,14.41c-.08,0-.16-.05-.24-.18-1-1.58-2.08-3.16-3.1-4.76a4.91,4.91,0,0,1-.9-2.87A4.26,4.26,0,0,1,7,2.66l.08,0a3.67,3.67,0,0,1,1-.11,3.64,3.64,0,0,1,1,.11l.08,0A4.25,4.25,0,0,1,12.33,6.6a4.91,4.91,0,0,1-.9,2.87c-1,1.6-2.06,3.18-3.1,4.76-.08.13-.16.18-.24.18Z"/><path class="cls-1" d="M8.08,7.13h.77a.55.55,0,0,1,.51.24.63.63,0,0,1,0,.54,1.18,1.18,0,0,1-.11.19c-.66.88-.86.81-1,.81H8c-.17,0-.37.07-1-.81a.72.72,0,0,1-.11-.19.59.59,0,0,1,0-.54.54.54,0,0,1,.51-.24h.76Z"/><circle class="cls-3" cx="7.41" cy="7.73" r="0.32"/></svg>