<svg id="Capa_1" data-name="Capa 1" xmlns="http://www.w3.org/2000/svg" viewBox="0 0 16 16"><defs><style>.cls-1,.cls-3{fill:#fff;}.cls-1{stroke:#305ca8;stroke-miterlimit:10;stroke-width:0.1px;}.cls-2{fill:#2f5ca8;}</style></defs><title>Mesa de trabajo 1</title><path class="cls-1" d="M8.05,14.38c-.37,0-.74,0-1.09-.05a3.77,3.77,0,0,1-1.62-.44c0-.09.28-.14.41-.17.29-.08.58-.14.88-.2s.28-.09.26-.29S6.73,13,6.57,13c-.45.11-.9.23-1.34.38a.5.5,0,0,0-.36.5.57.57,0,0,0,.37.51,4,4,0,0,0,1.54.4c.42,0,.83.07,1.25.07H8c.42,0,.83,0,1.25-.07a4,4,0,0,0,1.54-.4.57.57,0,0,0,.37-.51.5.5,0,0,0-.36-.5c-.44-.15-.89-.27-1.34-.38-.16,0-.3,0-.32.2s.11.26.26.29c.3.06.59.12.88.2.13,0,.39.08.41.17A3.77,3.77,0,0,1,9,14.33c-.35,0-.72.05-1.09.05Z"/><polygon class="cls-2" points="4.4 2.4 6 3.1 4.33 5.61 2.65 4.34 3.02 2.78 4.4 2.4"/><path class="cls-1" d="M6.52,2.74a5.07,5.07,0,0,0-1.89-.67C3.82,2,.79,2.27,1.68,4.52c.26.57.92,1.88,1.2,2.31A.37.37,0,0,0,3.16,7c.18,0,.39-.12.32-.81C3.37,5,3.4,2.21,5.87,3.09Z"/><polygon class="cls-2" points="11.6 2.4 10 3.1 11.67 5.61 13.35 4.34 12.98 2.78 11.6 2.4"/><path class="cls-1" d="M9.48,2.74a5.07,5.07,0,0,1,1.89-.67c.81-.11,3.84.2,3,2.45-.26.57-.92,1.88-1.2,2.31a.37.37,0,0,1-.28.16c-.18,0-.39-.12-.32-.81.11-1.14.08-4-2.39-3.09Z"/><path class="cls-1" d="M8,13.31c-.08,0-.15-.05-.23-.16L4.94,8.8a4.54,4.54,0,0,1-.82-2.62A3.89,3.89,0,0,1,7,2.58l.07,0a3.41,3.41,0,0,1,.9-.1,3.41,3.41,0,0,1,.9.1l.07,0a3.89,3.89,0,0,1,2.91,3.6,4.54,4.54,0,0,1-.82,2.62L8.23,13.15c-.08.11-.15.16-.23.16Z"/><path class="cls-2" d="M8,6.67h.7a.48.48,0,0,1,.46.22.52.52,0,0,1,0,.49.81.81,0,0,1-.1.18c-.6.8-.78.73-.94.73H7.89c-.16,0-.34.07-.95-.73a.76.76,0,0,1-.09-.18.56.56,0,0,1,0-.49.5.5,0,0,1,.47-.22H8Z"/><circle class="cls-3" cx="7.38" cy="7.21" r="0.29"/></svg>