<svg id="Capa_1" data-name="Capa 1" xmlns="http://www.w3.org/2000/svg" viewBox="0 0 16 16"><defs><style>.cls-1{fill:#fdc408;}.cls-1,.cls-2{stroke:#305ca8;stroke-miterlimit:10;stroke-width:0.1px;}.cls-2,.cls-4{fill:#fff;}.cls-3{fill:#2f5ca8;}</style></defs><title>Mesa de trabajo 1 copia 2</title><rect class="cls-1" width="16" height="16"/><path class="cls-2" d="M8,13.44c-.34,0-.68,0-1,0A3.54,3.54,0,0,1,5.55,13c0-.09.25-.13.37-.17l.81-.18c.15,0,.27-.08.25-.26a.2.2,0,0,0-.29-.19c-.42.11-.84.21-1.24.35a.48.48,0,0,0-.34.46.54.54,0,0,0,.34.47,3.61,3.61,0,0,0,1.42.37A11.28,11.28,0,0,0,8,13.92H8a11.28,11.28,0,0,0,1.16-.07,3.61,3.61,0,0,0,1.42-.37.54.54,0,0,0,.34-.47.48.48,0,0,0-.34-.46c-.4-.14-.82-.24-1.24-.35a.2.2,0,0,0-.29.19c0,.18.1.24.25.26l.81.18c.12,0,.35.08.37.17A3.54,3.54,0,0,1,9,13.4c-.32,0-.66,0-1,0Z"/><polygon class="cls-3" points="4.68 2.4 6.15 3.05 4.62 5.36 3.06 4.19 3.41 2.75 4.68 2.4"/><path class="cls-2" d="M6.64,2.72A4.71,4.71,0,0,0,4.9,2.1c-.75-.1-3.55.18-2.72,2.25a20.05,20.05,0,0,0,1.1,2.13.31.31,0,0,0,.26.15c.16,0,.36-.1.3-.75C3.73,4.83,3.76,2.23,6,3Z"/><polygon class="cls-3" points="11.32 2.4 9.85 3.05 11.38 5.36 12.94 4.19 12.59 2.75 11.32 2.4"/><path class="cls-2" d="M9.36,2.72A4.71,4.71,0,0,1,11.1,2.1c.75-.1,3.55.18,2.72,2.25a20.05,20.05,0,0,1-1.1,2.13.31.31,0,0,1-.26.15c-.16,0-.36-.1-.3-.75.11-1,.08-3.65-2.2-2.84Z"/><path class="cls-2" d="M8,12.46q-.11,0-.21-.15C6.92,11,6,9.64,5.18,8.3a4.15,4.15,0,0,1-.76-2.41A3.6,3.6,0,0,1,7.1,2.57l.07,0A3.3,3.3,0,0,1,8,2.46a3.3,3.3,0,0,1,.83.09l.07,0a3.6,3.6,0,0,1,2.68,3.32,4.15,4.15,0,0,1-.76,2.41C10,9.64,9.08,11,8.21,12.31q-.11.15-.21.15Z"/><path class="cls-3" d="M8,6.33h.65a.46.46,0,0,1,.42.2.5.5,0,0,1,0,.45A.42.42,0,0,1,9,7.15c-.55.74-.72.69-.87.69H7.89c-.14,0-.31,0-.86-.69A.42.42,0,0,1,6.94,7a.47.47,0,0,1,0-.45.46.46,0,0,1,.42-.2H8Z"/><circle class="cls-4" cx="7.43" cy="6.84" r="0.27"/></svg>