<svg id="Capa_1" data-name="Capa 1" xmlns="http://www.w3.org/2000/svg" viewBox="0 0 16 16"><defs><style>.cls-1{fill:#fdc408;stroke:#305ca8;stroke-miterlimit:10;stroke-width:0.1px;}.cls-2{fill:#2f5ca8;}.cls-3{fill:#fff;}</style></defs><title>Mesa de trabajo 1 copia 4</title><rect class="cls-1" width="16" height="16"/><polygon class="cls-2" points="4.42 2.65 6.04 3.36 4.36 5.9 2.65 4.62 3.03 3.04 4.42 2.65"/><path class="cls-3" d="M6.57,3a5.29,5.29,0,0,0-1.91-.68c-.82-.11-3.9.2-3,2.48A21.21,21.21,0,0,0,2.88,7.13a.37.37,0,0,0,.28.17c.19,0,.41-.12.33-.83-.12-1.15-.08-4,2.43-3.12Z"/><polygon class="cls-2" points="11.72 2.65 10.1 3.36 11.79 5.9 13.49 4.62 13.11 3.04 11.72 2.65"/><path class="cls-3" d="M9.57,3a5.29,5.29,0,0,1,1.91-.68c.82-.11,3.9.2,3,2.48a21.21,21.21,0,0,1-1.21,2.34A.37.37,0,0,1,13,7.3c-.19,0-.41-.12-.33-.83.12-1.15.08-4-2.43-3.12Z"/><path class="cls-3" d="M8.07,13.7a.29.29,0,0,1-.23-.16c-1-1.47-1.92-2.93-2.87-4.41a4.62,4.62,0,0,1-.83-2.65A3.94,3.94,0,0,1,7.08,2.83l.08,0a3.48,3.48,0,0,1,.91-.1,3.48,3.48,0,0,1,.91.1l.08,0A3.94,3.94,0,0,1,12,6.48a4.62,4.62,0,0,1-.83,2.65c-.95,1.48-1.91,2.94-2.87,4.41a.29.29,0,0,1-.23.16Z"/><path class="cls-2" d="M8.07,7h.71a.53.53,0,0,1,.47.23.55.55,0,0,1,0,.49.77.77,0,0,1-.1.18c-.61.81-.8.75-1,.75H8c-.15,0-.34.06-1-.75a.52.52,0,0,1-.1-.18.55.55,0,0,1,0-.49A.53.53,0,0,1,7.36,7h.71Z"/><circle class="cls-3" cx="7.44" cy="7.52" r="0.29"/></svg>